<?xml version="1.0" encoding="iso-8859-1"?>
<!-- Generator: Adobe Illustrator 19.0.0, SVG Export Plug-In . SVG Version: 6.00 Build 0)  -->
<svg version="1.1" id="Capa_1" xmlns="http://www.w3.org/2000/svg" xmlns:xlink="http://www.w3.org/1999/xlink" x="0px" y="0px"
	 viewBox="0 0 512 512" style="enable-background:new 0 0 512 512;" xml:space="preserve">
<path style="fill:#FF873C;" d="M395.615,280.56v195.748c0,12.487-6.359,23.855-17.006,30.384
	c-10.648,6.539-23.655,7.068-34.793,1.41l-35.262-17.906l-49.989-25.375c-0.54-0.28-1.13-0.46-1.72-0.54
	c-1.15-0.18-2.349,0.01-3.409,0.54l-50.779,25.784l-34.473,17.496C163.055,510.7,157.536,512,152.027,512
	c-6.459,0-12.887-1.78-18.636-5.309c-10.648-6.529-17.006-17.896-17.006-30.384V280.56c0-8.278,6.719-14.997,14.997-14.997h177.172
	c40.591,0,72.065,0,72.065,0C388.906,265.563,395.615,272.282,395.615,280.56z"/>
<path style="fill:#FA732D;" d="M395.615,280.56v195.748c0,12.487-6.359,23.855-17.006,30.384
	c-10.648,6.539-23.655,7.068-34.793,1.41l-35.262-17.906l-49.989-25.375c-0.54-0.28-1.13-0.46-1.72-0.54V265.563h51.709
	c40.591,0,72.065,0,72.065,0C388.906,265.563,395.615,272.282,395.615,280.56z"/>
<path style="fill:#FF2121;" d="M308.554,265.563v224.632l-49.989-25.375c-0.54-0.28-1.13-0.46-1.72-0.54
	c-1.15-0.18-2.349,0.01-3.409,0.54l-50.779,25.784V265.563H308.554z"/>
<path style="fill:#CF0404;" d="M308.554,265.563v224.632l-49.989-25.375c-0.54-0.28-1.13-0.46-1.72-0.54V265.563H308.554z"/>
<path style="fill:#D25F2D;" d="M431.727,175.732c0,96.619-78.363,175.272-174.882,175.732h-0.84
	c-96.899,0-175.732-78.833-175.732-175.732C80.273,78.833,159.106,0,256.005,0h0.84C353.364,0.46,431.727,79.113,431.727,175.732z"
	/>
<g>
	<path style="fill:#BF5327;" d="M431.727,175.732c0,96.619-78.363,175.272-174.882,175.732V0
		C353.364,0.46,431.727,79.113,431.727,175.732z"/>
	<path style="fill:#BF5327;" d="M375.829,175.732c0,65.786-53.299,119.364-118.984,119.814c-0.28,0.01-0.56,0.01-0.84,0.01
		c-66.076,0-119.834-53.758-119.834-119.824c0-66.076,53.758-119.834,119.834-119.834c0.28,0,0.56,0,0.84,0.01
		C322.531,56.358,375.829,109.936,375.829,175.732z"/>
</g>
<path style="fill:#8E2E29;" d="M375.829,175.732c0,65.786-53.299,119.364-118.984,119.814V55.908
	C322.531,56.358,375.829,109.936,375.829,175.732z"/>
<g>
	<path style="fill:#FF9D3B;" d="M227.202,146.309v58.837c0,8.278-6.719,14.997-14.997,14.997c-8.278,0-14.997-6.719-14.997-14.997
		v-58.837c0-8.278,6.719-14.997,14.997-14.997C220.484,131.312,227.202,138.03,227.202,146.309z"/>
	<path style="fill:#FF9D3B;" d="M272.346,146.314v58.837c0,8.278-6.719,14.997-14.997,14.997c-0.17,0-0.34,0-0.5-0.01
		c-8.048-0.26-14.497-6.879-14.497-14.987v-58.837c0-8.108,6.449-14.727,14.497-14.987c0.16-0.01,0.33-0.01,0.5-0.01
		C265.628,131.317,272.346,138.035,272.346,146.314z"/>
</g>
<g>
	<path style="fill:#F47E14;" d="M316.481,146.314v58.837c0,8.278-6.719,14.997-14.997,14.997s-14.997-6.719-14.997-14.997v-58.837
		c0-8.278,6.719-14.997,14.997-14.997S316.481,138.035,316.481,146.314z"/>
	<path style="fill:#F47E14;" d="M272.346,146.314v58.837c0,8.278-6.719,14.997-14.997,14.997c-0.17,0-0.34,0-0.5-0.01v-88.811
		c0.16-0.01,0.33-0.01,0.5-0.01C265.628,131.317,272.346,138.035,272.346,146.314z"/>
</g>
<g>
</g>
<g>
</g>
<g>
</g>
<g>
</g>
<g>
</g>
<g>
</g>
<g>
</g>
<g>
</g>
<g>
</g>
<g>
</g>
<g>
</g>
<g>
</g>
<g>
</g>
<g>
</g>
<g>
</g>
</svg>
