<svg id="Capa_1" enable-background="new 0 0 510 510" height="512" viewBox="0 0 510 510" width="512" xmlns="http://www.w3.org/2000/svg"><path d="m350.217 158.899 66.797 266.419-30.46 81.39c-1.501 4.01-6.991 4.466-9.132.757l-157.735-273.204z" fill="#ff415b"/><path d="m350.217 158.899 157.735 273.205c2.141 3.708-.999 8.236-5.222 7.53l-85.716-14.316-132.062-228.738z" fill="#00b6bd"/><path d="m159.783 158.899-66.798 266.42 30.46 81.39c1.501 4.01 6.991 4.466 9.133.757l157.735-273.205z" fill="#00ccb3"/><path d="m159.783 158.899-157.736 273.206c-2.141 3.708.999 8.236 5.222 7.53l85.716-14.316 132.063-228.739z" fill="#ff7c48"/><path d="m440.57 217.3-25.23 31.61c-4.43 5.55-7.2 12.24-7.99 19.3l-4.52 40.19c-1.96 17.48-15.75 31.27-33.23 33.23l-40.19 4.52c-7.06.79-13.75 3.56-19.3 7.99l-31.61 25.23c-6.88 5.49-15.19 8.23-23.5 8.23s-16.62-2.74-23.5-8.23l-31.61-25.23c-5.55-4.43-12.24-7.2-19.3-7.99l-40.19-4.52c-17.48-1.96-31.27-15.75-33.23-33.23l-4.52-40.19c-.79-7.06-3.56-13.75-7.99-19.3l-25.23-31.61c-10.97-13.75-10.97-33.26 0-47l25.23-31.61c4.43-5.55 7.2-12.24 7.99-19.3l4.52-40.19c1.96-17.48 15.75-31.27 33.23-33.24l40.19-4.51c7.06-.79 13.75-3.56 19.3-7.99l31.61-25.23c6.88-5.49 15.19-8.23 23.5-8.23s16.62 2.74 23.5 8.23l31.61 25.23c5.55 4.43 12.24 7.2 19.3 7.99l40.19 4.51c17.48 1.97 31.27 15.76 33.23 33.24l4.52 40.19c.79 7.06 3.56 13.75 7.99 19.3l25.23 31.61c10.97 13.74 10.97 33.25 0 47z" fill="#736e6e"/><path d="m440.57 217.3-25.23 31.61c-4.43 5.55-7.2 12.24-7.99 19.3l-4.52 40.19c-1.96 17.48-15.75 31.27-33.23 33.23l-40.19 4.52c-7.06.79-13.75 3.56-19.3 7.99l-31.61 25.23c-6.88 5.49-15.19 8.23-23.5 8.23v-387.6c8.31 0 16.62 2.74 23.5 8.23l31.61 25.23c5.55 4.43 12.24 7.2 19.3 7.99l40.19 4.51c17.48 1.97 31.27 15.76 33.23 33.24l4.52 40.19c.79 7.06 3.56 13.75 7.99 19.3l25.23 31.61c10.97 13.74 10.97 33.25 0 47z" fill="#5a5555"/><path d="m382.94 193.8c0 70.55-57.39 127.94-127.94 127.94s-127.94-57.39-127.94-127.94 57.39-127.95 127.94-127.95 127.94 57.4 127.94 127.95z" fill="#fff5f5"/><path d="m382.94 193.8c0 70.55-57.39 127.94-127.94 127.94v-255.89c70.55 0 127.94 57.4 127.94 127.95z" fill="#ebe1dc"/><path d="m352.94 193.8c0 54.01-43.93 97.94-97.94 97.94s-97.94-43.93-97.94-97.94 43.93-97.95 97.94-97.95 97.94 43.94 97.94 97.95z" fill="#ff7c48"/><path d="m352.94 193.8c0 54.01-43.93 97.94-97.94 97.94v-195.89c54.01 0 97.94 43.94 97.94 97.95z" fill="#ff415b"/><path d="m304.54 222.4c-4.14 7.17-13.32 9.63-20.49 5.49l-14.05-8.11v16.22c0 8.28-6.72 15-15 15s-15-6.72-15-15v-16.22l-14.05 8.11c-7.17 4.14-16.34 1.69-20.49-5.49-4.14-7.17-1.68-16.35 5.49-20.49l14.05-8.11-14.05-8.11c-7.17-4.14-9.63-13.32-5.49-20.49 4.14-7.18 13.32-9.64 20.49-5.49l14.05 8.11v-16.22c0-8.29 6.72-15 15-15s15 6.71 15 15v16.22l14.05-8.11c7.17-4.15 16.35-1.69 20.49 5.49 4.14 7.17 1.68 16.35-5.49 20.49l-14.05 8.11 14.05 8.11c7.17 4.14 9.63 13.32 5.49 20.49z" fill="#fff5f5"/><path d="m304.54 222.4c-4.14 7.17-13.32 9.63-20.49 5.49l-14.05-8.11v16.22c0 8.28-6.72 15-15 15v-114.4c8.28 0 15 6.71 15 15v16.22l14.05-8.11c7.17-4.15 16.35-1.69 20.49 5.49 4.14 7.17 1.68 16.35-5.49 20.49l-14.05 8.11 14.05 8.11c7.17 4.14 9.63 13.32 5.49 20.49z" fill="#ebe1dc"/></svg>